# xmcd CD database file
#
# Track frame offsets:
#	150
#	21915
#	42133
#	64068
#	84820
#	101760
#	125508
#	145608
#	168530
#	191353
#
# Disc length: 2675 seconds
#
# Revision: 0
# Processed by: cddbd v1.4PL0 Copyright (c) Steve Scherf et al.
# Submitted via: CDex 1.50Beta7
#
DISCID=7c0a710a
DTITLE=Rolf Wikström - Som ett fladdrande ljus
DYEAR=1990
DGENRE=Blues
TTITLE0=Lögner över landet
TTITLE1=Murar
TTITLE2=Himlen är blå
TTITLE3=Nog står jag ut med livet
TTITLE4=När du går
TTITLE5=Så långt från nån jag älskar
TTITLE6=Jag var där
TTITLE7=Ett pilträd
TTITLE8=Fast i en dröm
TTITLE9=Som ett fladdrande ljus
EXTD=YEAR: 1990
EXTT0=
EXTT1=
EXTT2=
EXTT3=
EXTT4=
EXTT5=
EXTT6=
EXTT7=
EXTT8=
EXTT9=
PLAYORDER=
